<svg width="398" height="79" viewBox="0 0 398 79" fill="none" xmlns="http://www.w3.org/2000/svg">
<g filter="url(#filter0_d_462_850)">
<path d="M99.1673 40.7096H94.5064L93.056 46.0108H89.005L90.4554 40.7096H87.5879V37.0683H91.4689L92.5826 33.0143H88.7015V29.3729H93.5961L95.083 24.0718H99.1339L97.6471 29.3729H102.311L103.795 24.0718H107.846L106.362 29.3729H109.263V33.0143H105.345L104.232 37.0683H108.146V40.7096H103.221L101.768 46.0108H97.7138L99.1673 40.7096ZM95.526 37.0683H100.187L101.301 33.0143H96.6336L95.526 37.0683Z" fill="#E06A1B"/>
<path d="M127.694 34.0245V34.6678L136.494 44.7603V46.0105H130.122L122.423 36.9072H120.229V46.0105H114.494V24.0654H120.232V32.1674H122.393L129.448 24.0654H135.386V25.3156L127.694 34.0245Z" fill="#E06A1B"/>
<path d="M139.331 29.13H145.002V30.7504C145.664 30.0951 146.45 29.5783 147.314 29.2303C148.178 28.8823 149.102 28.7099 150.034 28.7234C154.388 28.7234 157.562 32.1675 157.562 37.5688C157.562 42.9701 154.397 46.4111 150.043 46.4111C149.114 46.4309 148.19 46.265 147.326 45.9232C146.462 45.5814 145.675 45.0705 145.012 44.4206V51.242H139.331V29.13ZM144.793 37.5688C144.793 39.7657 146.177 41.0827 148.304 41.0827C150.431 41.0827 151.815 39.7657 151.815 37.5688C151.815 35.3718 150.431 34.0579 148.304 34.0579C146.177 34.0579 144.808 35.3749 144.808 37.5688H144.793Z" fill="#E06A1B"/>
<path d="M165.503 29.1299L169.218 38.9554H169.421L172.898 29.1299H178.333V30.2101L172.222 46.0772C170.905 49.4879 169.114 51.5696 163.14 51.5696V46.1683C164.423 46.1683 165.3 46.0985 165.871 45.8648L159.662 30.2101V29.1299H165.503Z" fill="#E06A1B"/>
<path d="M181.268 29.1299H194.131V34.3977H186.942V46.0105H181.268V29.1299Z" fill="#E06A1B"/>
<path d="M196.527 37.569C196.527 32.1677 200.472 28.7236 205.846 28.7236C211.22 28.7236 215.165 32.1677 215.165 37.569C215.165 42.9703 211.214 46.4114 205.846 46.4114C200.478 46.4114 196.527 42.9734 196.527 37.569ZM202.265 37.569C202.265 39.766 203.686 41.0829 205.846 41.0829C208.007 41.0829 209.427 39.766 209.427 37.569C209.427 35.3721 208.01 34.0582 205.849 34.0582C203.689 34.0582 202.265 35.3751 202.265 37.569Z" fill="#E06A1B"/>
<path d="M242.002 37.3685V38.7856C240.722 43.0339 236.094 46.4142 230.186 46.4142C223.207 46.4142 218.066 41.9263 218.066 34.9046C218.066 27.8829 223.198 23.4253 230.186 23.4253C235.791 23.4253 240.485 26.2595 242.002 31.0539V32.471H236.061C235.22 30.1102 233.096 28.7598 230.186 28.7598C226.405 28.7598 223.908 31.0539 223.908 34.9046C223.908 38.7553 226.405 41.0827 230.186 41.0827C233.09 41.0827 235.25 39.7324 236.094 37.3685H242.002Z" fill="#E06A1B"/>
<path d="M245.949 29.1299H253.839C258.767 29.1299 262.381 30.8868 262.381 33.985C262.381 35.6388 261.267 36.716 259.847 37.3957V37.6991C261.234 38.2059 262.578 39.2862 262.578 40.9399C262.578 43.8773 259.407 46.0044 253.969 46.0044H245.949V29.1299ZM254.142 33.7544H251.608V36.0939H254.582C255.729 36.0939 256.403 35.6206 256.403 34.9469C256.415 34.1944 255.605 33.7877 254.154 33.7544H254.142ZM254.782 39.0555H251.621V41.386H254.221C255.808 41.386 256.649 40.9794 256.649 40.2026C256.652 39.5289 255.945 39.0555 254.795 39.0555H254.782Z" fill="#E06A1B"/>
<path d="M283.828 39.6624V40.7427C282.781 43.9501 279.237 46.411 274.646 46.411C269.278 46.411 265.327 42.97 265.327 37.5656C265.327 32.1613 269.272 28.7202 274.646 28.7202C279.44 28.7202 283.085 31.4512 283.828 35.8785V38.306H271.102C271.372 40.1631 272.722 41.2767 274.646 41.2767C276.03 41.2767 277.246 40.77 277.887 39.6563L283.828 39.6624ZM271.439 35.308H277.853C277.28 34.1276 276.233 33.4509 274.646 33.4509C273.15 33.4509 272.012 34.1276 271.439 35.308Z" fill="#E06A1B"/>
<path d="M296.792 46.0105H291.12V34.3977H285.989V29.1299H301.89V34.3977H296.792V46.0105Z" fill="#E06A1B"/>
<path d="M311.882 39.6958H310.669V46.0105H304.994V29.1299H310.669V35.4446H311.816L316.643 29.1299H322.281V29.9067L316.44 37.4018L322.718 45.2337V46.0105H316.777L311.882 39.6958Z" fill="#E06A1B"/>
<path d="M342.502 46.0108H336.831V44.4238C336.165 45.0714 335.378 45.5808 334.515 45.9224C333.651 46.2641 332.728 46.4313 331.8 46.4144C327.446 46.4144 324.271 42.9733 324.271 37.569C324.271 32.1646 327.446 28.7236 331.8 28.7236C332.731 28.7132 333.654 28.8869 334.518 29.2347C335.381 29.5826 336.167 30.0978 336.831 30.7506V29.1302H342.502V46.0108ZM337.04 37.569C337.04 35.3751 335.654 34.0581 333.53 34.0581C331.405 34.0581 330.016 35.3751 330.016 37.569C330.016 39.7629 331.402 41.0829 333.53 41.0829C335.657 41.0829 337.034 39.7659 337.034 37.569H337.04Z" fill="#E06A1B"/>
<path d="M372.109 28.4199C367.972 33.7118 364.753 39.6612 362.587 46.0196H356.849C359.011 39.9477 362.073 34.2349 365.931 29.0723H353.438V24.0654H372.109V28.4199Z" fill="#3780C3"/>
<path d="M393.314 41.1493H390.477V46.0044H384.739V41.1493H372.923V36.8283L385.425 24.0654H390.489V36.4884H394L393.314 41.1493ZM384.739 36.4884V30.987L378.898 36.4884H384.739Z" fill="#3780C3"/>
<path d="M68.7776 34.926C66.7337 34.5547 64.6713 34.2933 62.5994 34.1431C57.4434 33.7744 52.2612 34.0887 47.1875 35.0777C49.9185 38.1121 52.1245 40.5397 53.5598 42.1631C56.039 44.9578 62.5205 52.3073 64.9086 54.6923C67.0327 56.8164 68.0129 57.8542 68.468 58.3337C71.1839 61.1284 72.6889 62.6759 73.6418 62.3088C74.5946 61.9416 74.6462 59.6142 74.5824 58.1698C74.4429 55.1263 73.663 48.2593 68.7776 34.926Z" fill="url(#paint0_linear_462_850)"/>
<path d="M39.2951 35.2928C40.7955 32.2261 42.6831 29.3645 44.9119 26.7782C48.972 22.0779 51.2569 21.7046 51.8911 21.6197C53.9242 21.3708 55.6629 22.0961 56.7189 22.6726C58.3999 23.7623 59.9947 24.9797 61.489 26.3139C64.3146 28.8239 66.7669 31.7248 68.7717 34.9287C58.9113 33.1439 48.7574 33.9298 39.2891 37.2106L39.2951 35.2928Z" fill="#F18919"/>
<path d="M38.943 5.80122C38.5093 8.22687 38.2296 10.6775 38.1055 13.1385C37.8656 18.03 38.2315 22.9324 39.1948 27.7342C41.4707 25.5089 43.8042 23.2735 46.1953 21.028C50.399 17.0711 54.5703 13.2933 58.7093 9.69441C60.8334 7.5703 61.8712 6.58714 62.3355 6.13501C65.1302 3.40401 66.6778 1.91107 66.3136 0.958252C65.9495 0.00543743 63.616 -0.0431136 62.1747 0.0175753C59.1432 0.135918 52.2763 0.91577 38.943 5.80122Z" fill="url(#paint1_linear_462_850)"/>
<path d="M39.3285 35.2715C36.2617 33.7711 33.4001 31.8835 30.8138 29.6547C26.1135 25.5947 25.7403 23.3097 25.6553 22.6755C25.4938 20.9958 25.862 19.3076 26.7082 17.8477C27.797 16.166 29.0144 14.5712 30.3496 13.0776C32.8595 10.252 35.7605 7.79967 38.9643 5.79492C37.1754 15.6551 37.9614 25.8101 41.2462 35.2776L39.3285 35.2715Z" fill="#5EC0C6"/>
<path d="M39.6837 64.7663C40.1355 62.2539 40.4233 59.7148 40.5454 57.165C40.7655 52.4781 40.4232 47.7817 39.5259 43.1763C36.4914 45.9073 34.0639 48.1133 32.4435 49.5486C29.6336 52.0399 22.2993 58.5093 19.9143 60.8944C17.7902 63.0185 16.7524 64.0016 16.2729 64.4538C13.4782 67.1696 11.9307 68.6777 12.2948 69.6123C12.6771 70.6076 14.9924 70.6167 16.4368 70.556C19.4712 70.4316 26.3473 69.6487 39.6837 64.7663Z" fill="url(#paint2_linear_462_850)"/>
<path d="M9.81245 35.6542C12.0322 36.0561 14.2734 36.3296 16.5246 36.4735C21.502 36.783 26.4985 36.4567 31.3934 35.5025C29.2794 33.1458 27.1553 30.7839 25.0211 28.4171C21.2462 24.2134 17.4744 20.037 13.7056 15.8879C11.5815 13.7638 10.5984 12.726 10.1462 12.2617C7.41524 9.467 5.92229 7.91943 4.96948 8.28356C4.01667 8.6477 3.95598 10.9812 4.01667 12.4256C4.14715 15.46 4.927 22.3209 9.81245 35.6542Z" fill="url(#paint3_linear_462_850)"/>
<path d="M39.2949 35.2869C37.7946 38.3537 35.9069 41.2153 33.6782 43.8015C29.6181 48.5019 27.3332 48.8751 26.699 48.9601C24.6659 49.2089 22.9271 48.4837 21.8712 47.9071C20.1908 46.8164 18.5962 45.5991 17.101 44.2658C14.2746 41.7555 11.8222 38.8535 9.81836 35.648C15.1382 36.6118 20.5661 36.8314 25.9464 36.3004C30.4965 35.8506 34.9779 34.8668 39.298 33.3691L39.2949 35.2869Z" fill="#FCE155"/>
<path d="M39.3103 35.2838C42.3771 36.7841 45.2387 38.6718 47.825 40.9005C52.5253 44.9606 52.8986 47.2456 52.9835 47.8798C53.2324 49.9128 52.5071 51.6516 51.9306 52.7076C50.8399 54.3879 49.6226 55.9826 48.2893 57.4777C45.779 60.3041 42.8769 62.7566 39.6714 64.7604C40.6353 59.4406 40.8548 54.0126 40.3238 48.6323C39.8741 44.0822 38.8902 39.6008 37.3926 35.2808L39.3103 35.2838Z" fill="#3780C3"/>
<path d="M39.295 43.1823C43.6557 43.1823 47.1906 39.6474 47.1906 35.2867C47.1906 30.9261 43.6557 27.3911 39.295 27.3911C34.9344 27.3911 31.3994 30.9261 31.3994 35.2867C31.3994 39.6474 34.9344 43.1823 39.295 43.1823Z" fill="#4364AD"/>
</g>
<defs>
<filter id="filter0_d_462_850" x="0" y="0" width="398" height="78.5767" filterUnits="userSpaceOnUse" color-interpolation-filters="sRGB">
<feFlood flood-opacity="0" result="BackgroundImageFix"/>
<feColorMatrix in="SourceAlpha" type="matrix" values="0 0 0 0 0 0 0 0 0 0 0 0 0 0 0 0 0 0 127 0" result="hardAlpha"/>
<feOffset dy="4"/>
<feGaussianBlur stdDeviation="2"/>
<feComposite in2="hardAlpha" operator="out"/>
<feColorMatrix type="matrix" values="0 0 0 0 0 0 0 0 0 0 0 0 0 0 0 0 0 0 0.25 0"/>
<feBlend mode="normal" in2="BackgroundImageFix" result="effect1_dropShadow_462_850"/>
<feBlend mode="normal" in="SourceGraphic" in2="effect1_dropShadow_462_850" result="shape"/>
</filter>
<linearGradient id="paint0_linear_462_850" x1="60.891" y1="35.7847" x2="60.891" y2="64.1416" gradientUnits="userSpaceOnUse">
<stop stop-color="#E7651C"/>
<stop offset="0.21" stop-color="#E96C1B"/>
<stop offset="0.51" stop-color="#EF811A"/>
<stop offset="0.6" stop-color="#F18919"/>
<stop offset="1" stop-color="#F18919"/>
</linearGradient>
<linearGradient id="paint1_linear_462_850" x1="39.9292" y1="13.8577" x2="68.2648" y2="13.8577" gradientUnits="userSpaceOnUse">
<stop stop-color="#00959B"/>
<stop offset="0.14" stop-color="#169FA5"/>
<stop offset="0.42" stop-color="#4DB8BE"/>
<stop offset="0.5" stop-color="#5EC0C6"/>
<stop offset="1" stop-color="#5EC0C6"/>
</linearGradient>
<linearGradient id="paint2_linear_462_850" x1="36.3488" y1="56.8798" x2="7.99499" y2="56.8798" gradientUnits="userSpaceOnUse">
<stop stop-color="#2E64A2"/>
<stop offset="0.46" stop-color="#3780C3"/>
<stop offset="1" stop-color="#3780C3"/>
</linearGradient>
<linearGradient id="paint3_linear_462_850" x1="17.699" y1="33.1721" x2="17.699" y2="4.8152" gradientUnits="userSpaceOnUse">
<stop offset="0.08" stop-color="#FDC300"/>
<stop offset="0.5" stop-color="#FCD73A"/>
<stop offset="0.68" stop-color="#FCE155"/>
<stop offset="1" stop-color="#FCE155"/>
</linearGradient>
</defs>
</svg>
