<svg width="390" height="74" viewBox="0 0 390 74" fill="none" xmlns="http://www.w3.org/2000/svg">
<path d="M95.1673 42.4582H90.5064L89.056 47.9258H85.005L86.4554 42.4582H83.5879V38.7025H87.4689L88.5826 34.5212H84.7015V30.7655H89.5961L91.083 25.2979H95.1339L93.6471 30.7655H98.311L99.7948 25.2979H103.846L102.362 30.7655H105.263V34.5212H101.345L100.232 38.7025H104.146V42.4582H99.2213L97.7678 47.9258H93.7138L95.1673 42.4582ZM91.526 38.7025H96.1869L97.3005 34.5212H92.6336L91.526 38.7025Z" fill="white"/>
<path d="M123.694 35.5633V36.2268L132.494 46.6363V47.9257H126.122L118.423 38.5365H116.229V47.9257H110.494V25.2915H116.232V33.6479H118.393L125.448 25.2915H131.386V26.581L123.694 35.5633Z" fill="white"/>
<path d="M135.332 30.5149H141.003V32.1861C141.665 31.5103 142.451 30.9773 143.315 30.6183C144.179 30.2593 145.103 30.0816 146.035 30.0955C150.389 30.0955 153.563 33.6477 153.563 39.2186C153.563 44.7896 150.398 48.3387 146.044 48.3387C145.115 48.3591 144.191 48.188 143.327 47.8354C142.463 47.4829 141.676 46.956 141.013 46.2856V53.3212H135.332V30.5149ZM140.794 39.2186C140.794 41.4846 142.178 42.8429 144.305 42.8429C146.432 42.8429 147.816 41.4846 147.816 39.2186C147.816 36.9527 146.432 35.5975 144.305 35.5975C142.178 35.5975 140.809 36.9559 140.809 39.2186H140.794Z" fill="white"/>
<path d="M161.503 30.5146L165.218 40.6487H165.421L168.898 30.5146H174.333V31.6288L168.222 47.9942C166.905 51.512 165.114 53.659 159.14 53.659V48.0881C160.423 48.0881 161.3 48.0161 161.871 47.7751L155.662 31.6288V30.5146H161.503Z" fill="white"/>
<path d="M177.268 30.5146H190.131V35.9479H182.942V47.9253H177.268V30.5146Z" fill="white"/>
<path d="M192.527 39.2189C192.527 33.6479 196.472 30.0957 201.846 30.0957C207.22 30.0957 211.165 33.6479 211.165 39.2189C211.165 44.7898 207.214 48.3389 201.846 48.3389C196.478 48.3389 192.527 44.7929 192.527 39.2189ZM198.265 39.2189C198.265 41.4848 199.686 42.8431 201.846 42.8431C204.007 42.8431 205.427 41.4848 205.427 39.2189C205.427 36.9529 204.01 35.5978 201.849 35.5978C199.689 35.5978 198.265 36.9561 198.265 39.2189Z" fill="white"/>
<path d="M238.002 39.0125V40.474C236.722 44.8557 232.094 48.3422 226.186 48.3422C219.207 48.3422 214.066 43.7133 214.066 36.4711C214.066 29.2289 219.198 24.6313 226.186 24.6313C231.791 24.6313 236.485 27.5545 238.002 32.4995V33.9611H232.061C231.22 31.5261 229.096 30.1334 226.186 30.1334C222.405 30.1334 219.908 32.4995 219.908 36.4711C219.908 40.4428 222.405 42.8433 226.186 42.8433C229.09 42.8433 231.25 41.4505 232.094 39.0125H238.002Z" fill="white"/>
<path d="M241.949 30.5146H249.839C254.767 30.5146 258.381 32.3268 258.381 35.5222C258.381 37.2279 257.267 38.339 255.847 39.04V39.353C257.234 39.8757 258.578 40.9899 258.578 42.6956C258.578 45.7251 255.407 47.9191 249.969 47.9191H241.949V30.5146ZM250.142 35.2844H247.608V37.6974H250.582C251.729 37.6974 252.403 37.2091 252.403 36.5143C252.415 35.7382 251.605 35.3188 250.154 35.2844H250.142ZM250.782 40.752H247.621V43.1556H250.221C251.808 43.1556 252.649 42.7362 252.649 41.935C252.652 41.2402 251.945 40.752 250.795 40.752H250.782Z" fill="white"/>
<path d="M279.829 41.3781V42.4923C278.782 45.8004 275.238 48.3386 270.647 48.3386C265.279 48.3386 261.328 44.7895 261.328 39.2155C261.328 33.6414 265.273 30.0923 270.647 30.0923C275.441 30.0923 279.086 32.909 279.829 37.4753V39.9791H267.103C267.373 41.8945 268.723 43.0431 270.647 43.0431C272.031 43.0431 273.247 42.5205 273.888 41.3718L279.829 41.3781ZM267.439 36.8869H273.854C273.281 35.6695 272.234 34.9715 270.647 34.9715C269.151 34.9715 268.013 35.6695 267.439 36.8869Z" fill="white"/>
<path d="M292.791 47.9253H287.12V35.9479H281.988V30.5146H297.889V35.9479H292.791V47.9253Z" fill="white"/>
<path d="M307.882 41.4124H306.669V47.9253H300.994V30.5146H306.669V37.0276H307.816L312.643 30.5146H318.281V31.3159L312.44 39.0463L318.718 47.1241V47.9253H312.777L307.882 41.4124Z" fill="white"/>
<path d="M338.502 47.9258H332.831V46.2889C332.165 46.9569 331.378 47.4822 330.515 47.8346C329.651 48.187 328.728 48.3594 327.8 48.342C323.446 48.342 320.271 44.7929 320.271 39.2188C320.271 33.6448 323.446 30.0957 327.8 30.0957C328.731 30.0849 329.654 30.2641 330.518 30.6229C331.381 30.9817 332.167 31.513 332.831 32.1863V30.5151H338.502V47.9258ZM333.04 39.2188C333.04 36.956 331.654 35.5977 329.53 35.5977C327.405 35.5977 326.016 36.956 326.016 39.2188C326.016 41.4816 327.402 42.8431 329.53 42.8431C331.657 42.8431 333.034 41.4848 333.034 39.2188H333.04Z" fill="white"/>
<path d="M368.108 29.7827C363.971 35.2408 360.752 41.377 358.586 47.9351H352.848C355.01 41.6725 358.072 35.7803 361.93 30.4556H349.438V25.2915H368.108V29.7827Z" fill="white"/>
<path d="M389.313 42.9119H386.476V47.9195H380.738V42.9119H368.922V38.4552L381.424 25.2915H386.488V38.1046H389.999L389.313 42.9119ZM380.738 38.1046V32.4304L374.897 38.1046H380.738Z" fill="white"/>
<path d="M64.7776 36.4929C62.7337 36.1099 60.6713 35.8404 58.5994 35.6854C53.4434 35.3051 48.2612 35.6292 43.1875 36.6493C45.9185 39.7791 48.1245 42.2829 49.5598 43.9573C52.039 46.8397 58.5205 54.42 60.9086 56.8799C63.0327 59.0707 64.0129 60.1411 64.468 60.6356C67.1839 63.5181 68.6889 65.1143 69.6418 64.7356C70.5946 64.3569 70.6462 61.9564 70.5824 60.4666C70.4429 57.3275 69.663 50.2449 64.7776 36.4929Z" fill="white"/>
<path d="M35.2951 36.8713C36.7955 33.7082 38.6831 30.7567 40.9119 28.0892C44.972 23.2413 47.2569 22.8563 47.8911 22.7687C49.9242 22.5121 51.6629 23.2601 52.7189 23.8547C54.3999 24.9786 55.9947 26.2342 57.489 27.6104C60.3146 30.1992 62.7669 33.1912 64.7717 36.4957C54.9113 34.6549 44.7574 35.4654 35.2891 38.8493L35.2951 36.8713Z" fill="white"/>
<path d="M34.9439 6.45361C34.5103 8.95543 34.2306 11.483 34.1064 14.0213C33.8666 19.0664 34.2325 24.1228 35.1958 29.0753C37.4716 26.7802 39.8051 24.4746 42.1963 22.1586C46.4 18.0774 50.5713 14.1809 54.7103 10.4691C56.8344 8.27824 57.8722 7.26421 58.3365 6.79788C61.1312 3.98112 62.6787 2.44129 62.3146 1.45856C61.9505 0.475823 59.617 0.425747 58.1756 0.488342C55.1442 0.610402 48.2773 1.41474 34.9439 6.45361Z" fill="white"/>
<path d="M35.3275 36.8495C32.2607 35.302 29.3991 33.3551 26.8129 31.0563C22.1125 26.8688 21.7393 24.5121 21.6543 23.858C21.4928 22.1255 21.861 20.3843 22.7073 18.8786C23.796 17.144 25.0134 15.4991 26.3486 13.9586C28.8586 11.0443 31.7595 8.51497 34.9634 6.44727C33.1745 16.6171 33.9604 27.091 37.2453 36.8557L35.3275 36.8495Z" fill="white"/>
<path d="M35.6837 67.2705C36.1355 64.6792 36.4233 62.0603 36.5454 59.4305C36.7655 54.5964 36.4232 49.7525 35.5259 45.0024C32.4914 47.8192 30.0639 50.0945 28.4435 51.5749C25.6336 54.1444 18.2993 60.817 15.9143 63.2769C13.7902 65.4678 12.7524 66.4818 12.2729 66.9481C9.47823 69.7492 7.93066 71.3047 8.2948 72.2687C8.67713 73.2952 10.9924 73.3046 12.4368 73.242C15.4712 73.1137 22.3473 72.3062 35.6837 67.2705Z" fill="white"/>
<path d="M5.81245 37.2439C8.03224 37.6584 10.2734 37.9405 12.5246 38.0889C17.502 38.4082 22.4985 38.0716 27.3934 37.0874C25.2794 34.6567 23.1553 32.2207 21.0211 29.7795C17.2462 25.4438 13.4744 21.1362 9.70564 16.8568C7.58153 14.666 6.59837 13.5957 6.14624 13.1168C3.41524 10.2343 1.92229 8.63816 0.96948 9.01373C0.0166655 9.3893 -0.0440233 11.7961 0.0166655 13.2858C0.147146 16.4155 0.926998 23.4919 5.81245 37.2439Z" fill="white"/>
<path d="M35.2949 36.8652C33.7946 40.0283 31.9069 42.9797 29.6782 45.6472C25.6181 50.4952 23.3332 50.8801 22.699 50.9678C20.6659 51.2244 18.9271 50.4764 17.8712 49.8817C16.1908 48.7568 14.5962 47.5012 13.101 46.1261C10.2746 43.5369 7.82217 40.5438 5.81836 37.2376C11.1382 38.2317 16.5661 38.4582 21.9464 37.9105C26.4965 37.4466 30.9779 36.4319 35.298 34.8872L35.2949 36.8652Z" fill="white"/>
<path d="M35.3103 36.862C38.3771 38.4095 41.2387 40.3564 43.825 42.6551C48.5253 46.8427 48.8986 49.1994 48.9835 49.8535C49.2324 51.9505 48.5071 53.7438 47.9306 54.8329C46.8399 56.566 45.6226 58.2108 44.2893 59.7529C41.779 62.668 38.8769 65.1975 35.6714 67.2642C36.6353 61.7774 36.8548 56.1789 36.3238 50.6297C35.8741 45.9367 34.8902 41.3146 33.3926 36.8589L35.3103 36.862Z" fill="white"/>
<path d="M35.2941 45.0088C39.6547 45.0088 43.1897 41.3628 43.1897 36.8652C43.1897 32.3677 39.6547 28.7217 35.2941 28.7217C30.9334 28.7217 27.3984 32.3677 27.3984 36.8652C27.3984 41.3628 30.9334 45.0088 35.2941 45.0088Z" fill="white"/>
</svg>
