<svg width="30" height="31" viewBox="0 0 30 31" fill="none" xmlns="http://www.w3.org/2000/svg">
<path d="M15 28.4166C13.2917 28.4166 11.6771 28.0773 10.1563 27.3988C8.63542 26.7202 7.30708 25.7945 6.17125 24.6217C5.03625 23.4488 4.14042 22.0767 3.48375 20.5051C2.82708 18.9336 2.49917 17.2652 2.5 15.4999C2.5 13.7131 2.82834 12.0391 3.485 10.4779C4.14167 8.91672 5.0375 7.55014 6.1725 6.37817C7.3075 5.20447 8.635 4.27878 10.155 3.60109C11.675 2.92339 13.29 2.58411 15 2.58325C16.7292 2.58325 18.3492 2.92253 19.86 3.60109C21.3708 4.27964 22.6933 5.20534 23.8275 6.37817C24.9633 7.551 25.8592 8.91802 26.515 10.4792C27.1708 12.0404 27.4992 13.714 27.5 15.4999V17.3728C27.5 18.643 27.0783 19.725 26.235 20.6188C25.3917 21.5126 24.355 21.9591 23.125 21.9583C22.375 21.9583 21.6771 21.786 21.0313 21.4416C20.3854 21.0971 19.8542 20.6451 19.4375 20.0853C18.875 20.6666 18.2133 21.1243 17.4525 21.4584C16.6917 21.7925 15.8742 21.9591 15 21.9583C13.2708 21.9583 11.7967 21.3283 10.5775 20.0685C9.35834 18.8087 8.74917 17.2859 8.75 15.4999C8.75 13.7131 9.35959 12.1898 10.5788 10.93C11.7979 9.6702 13.2717 9.04072 15 9.04158C16.7292 9.04158 18.2033 9.67149 19.4225 10.9313C20.6417 12.1911 21.2508 13.714 21.25 15.4999V17.3728C21.25 17.9971 21.4375 18.4867 21.8125 18.8415C22.1875 19.1962 22.625 19.3741 23.125 19.3749C23.625 19.3749 24.0625 19.1971 24.4375 18.8415C24.8125 18.4858 25 17.9963 25 17.3728V15.4999C25 12.6798 24.0154 10.2523 22.0462 8.2175C20.0771 6.1827 17.7283 5.16572 15 5.16659C12.2708 5.16659 9.92167 6.18399 7.9525 8.21879C5.98334 10.2536 4.99917 12.6806 5 15.4999C5 18.3201 5.98459 20.7475 7.95375 22.7823C9.92292 24.8171 12.2717 25.8341 15 25.8333H20C20.3542 25.8333 20.6513 25.9573 20.8913 26.2053C21.1313 26.4533 21.2508 26.7598 21.25 27.1249C21.25 27.4909 21.13 27.7979 20.89 28.0459C20.65 28.2939 20.3533 28.4174 20 28.4166H15ZM15 19.3749C16.0417 19.3749 16.9271 18.9982 17.6563 18.2447C18.3854 17.4912 18.75 16.5763 18.75 15.4999C18.75 14.4235 18.3854 13.5086 17.6563 12.7551C16.9271 12.0017 16.0417 11.6249 15 11.6249C13.9583 11.6249 13.0729 12.0017 12.3438 12.7551C11.6146 13.5086 11.25 14.4235 11.25 15.4999C11.25 16.5763 11.6146 17.4912 12.3438 18.2447C13.0729 18.9982 13.9583 19.3749 15 19.3749Z" fill="#5EBFC5"/>
</svg>
