<svg width="50" height="50" viewBox="0 0 50 50" fill="none" xmlns="http://www.w3.org/2000/svg">
<path d="M50 43.0556C50 46.9444 46.9444 50 43.0556 50H6.94444C3.05556 50 0 46.9444 0 43.0556V6.94444C0 3.05556 3.05556 0 6.94444 0H43.0556C46.9444 0 50 3.05556 50 6.94444V43.0556Z" fill="#FF9800"/>
<path d="M29.0277 33.889C31.1111 33.4723 33.0555 32.639 34.7222 31.5279C36.1111 30.6946 36.5277 28.889 35.6944 27.5001C34.8611 26.1112 33.0555 25.6946 31.6666 26.5279C27.6388 29.0279 22.3611 29.0279 18.3333 26.5279C16.9444 25.6946 15.1388 26.1112 14.3055 27.5001C13.4722 28.889 13.8888 30.6946 15.2777 31.5279C17.0833 32.639 19.0277 33.4723 20.9722 33.889L15.4166 39.4446C14.3055 40.5557 14.3055 42.3612 15.4166 43.6112C15.9722 44.1668 16.6666 44.4446 17.4999 44.4446C18.1944 44.4446 19.0277 44.1668 19.5833 43.6112L24.9999 38.1946L30.4166 43.6112C31.5277 44.7223 33.3333 44.7223 34.5833 43.6112C35.6944 42.5001 35.6944 40.6946 34.5833 39.4446L29.0277 33.889ZM24.9999 5.55566C19.5833 5.55566 15.2777 9.86122 15.2777 15.2779C15.2777 20.6946 19.5833 25.0001 24.9999 25.0001C30.4166 25.0001 34.7222 20.6946 34.7222 15.2779C34.7222 9.86122 30.4166 5.55566 24.9999 5.55566ZM24.9999 19.4446C22.6388 19.4446 20.8333 17.639 20.8333 15.2779C20.8333 12.9168 22.6388 11.1112 24.9999 11.1112C27.3611 11.1112 29.1666 12.9168 29.1666 15.2779C29.1666 17.639 27.3611 19.4446 24.9999 19.4446Z" fill="white"/>
</svg>
