<svg width="55" height="58" viewBox="0 0 55 58" fill="none" xmlns="http://www.w3.org/2000/svg">
<path d="M27.5 0.501465C20.2082 0.501465 13.2086 3.49161 8.05664 8.80889C2.89937 14.1283 0.00142858 21.3424 0 28.865C0 36.3845 2.90039 43.6039 8.05664 48.9212C13.2086 54.2385 20.2082 57.2286 27.5 57.2286C34.7918 57.2286 41.7914 54.2385 46.9434 48.9212C52.0996 43.6039 55 36.3845 55 28.865C55 21.3456 52.0996 14.1262 46.9434 8.80889C41.7914 3.49161 34.7918 0.501465 27.5 0.501465Z" fill="url(#paint0_linear_768_506)"/>
<path d="M12.4472 28.5657C20.4652 24.9635 25.8105 22.5885 28.4831 21.4411C36.123 18.1647 37.7085 17.5956 38.7441 17.5763C38.9718 17.5726 39.4788 17.6306 39.8097 17.9065C40.0847 18.1392 40.162 18.4538 40.2007 18.6748C40.2351 18.8955 40.2824 19.3985 40.2437 19.7911C39.8312 24.2761 38.0394 35.1598 37.1285 40.1832C36.746 42.3087 35.9855 43.0214 35.2507 43.0909C33.6523 43.2425 32.4406 42.0025 30.8937 40.957C28.4745 39.3203 27.1081 38.3019 24.7577 36.7051C22.0421 34.8597 23.8038 33.8453 25.3507 32.1878C25.7546 31.7539 32.7929 25.1527 32.9261 24.554C32.9433 24.4791 32.9605 24.1999 32.7972 24.0528C32.6382 23.9052 32.4019 23.9557 32.23 23.9956C31.9851 24.0523 28.1222 26.6884 20.6285 31.9033C19.5327 32.6806 18.5402 33.0595 17.6464 33.0396C16.6667 33.0179 14.7761 32.467 13.371 31.9963C11.6523 31.4189 10.2816 31.1135 10.4019 30.1328C10.462 29.6222 11.1452 29.0997 12.4472 28.5657Z" fill="white"/>
<defs>
<linearGradient id="paint0_linear_768_506" x1="2750" y1="0.501465" x2="2750" y2="5673.22" gradientUnits="userSpaceOnUse">
<stop stop-color="#2AABEE"/>
<stop offset="1" stop-color="#229ED9"/>
</linearGradient>
</defs>
</svg>
