<svg width="24" height="30" viewBox="0 0 24 30" fill="none" xmlns="http://www.w3.org/2000/svg">
<path d="M12 15.2866C12.825 15.2866 13.5315 14.987 14.1195 14.3878C14.7065 13.7896 15 13.0701 15 12.2293C15 11.3885 14.7065 10.6685 14.1195 10.0693C13.5315 9.47108 12.825 9.17197 12 9.17197C11.175 9.17197 10.469 9.47108 9.882 10.0693C9.294 10.6685 9 11.3885 9 12.2293C9 13.0701 9.294 13.7896 9.882 14.3878C10.469 14.987 11.175 15.2866 12 15.2866ZM12 26.5223C15.05 23.6688 17.3125 21.0762 18.7875 18.7445C20.2625 16.4138 21 14.3439 21 12.535C21 9.75796 20.131 7.48382 18.393 5.71261C16.656 3.94242 14.525 3.05732 12 3.05732C9.475 3.05732 7.3435 3.94242 5.6055 5.71261C3.8685 7.48382 3 9.75796 3 12.535C3 14.3439 3.7375 16.4138 5.2125 18.7445C6.6875 21.0762 8.95 23.6688 12 26.5223ZM12 30C11.8 30 11.6 29.9618 11.4 29.8853C11.2 29.8089 11.025 29.707 10.875 29.5796C7.225 26.293 4.5 23.2423 2.7 20.4275C0.9 17.6117 0 14.9809 0 12.535C0 8.71338 1.2065 5.66879 3.6195 3.40127C6.0315 1.13376 8.825 0 12 0C15.175 0 17.9685 1.13376 20.3805 3.40127C22.7935 5.66879 24 8.71338 24 12.535C24 14.9809 23.1 17.6117 21.3 20.4275C19.5 23.2423 16.775 26.293 13.125 29.5796C12.975 29.707 12.8 29.8089 12.6 29.8853C12.4 29.9618 12.2 30 12 30Z" fill="#5EBFC5"/>
</svg>
