<svg width="55" height="55" viewBox="0 0 55 55" fill="none" xmlns="http://www.w3.org/2000/svg">
<path d="M27.5 0C12.375 0 0 12.375 0 27.5C0 42.625 12.375 55 27.5 55C42.625 55 55 42.625 55 27.5C55 12.375 42.625 0 27.5 0Z" fill="#1976D2"/>
<path d="M29.1498 40.1501C16.7748 40.1501 9.7623 31.7626 9.4873 17.6001H15.6748C15.8123 27.9126 20.4873 32.3126 24.0623 33.1376V17.6001H29.8373V26.5376C33.4123 26.1251 37.1248 22.1376 38.3623 17.6001H44.1373C43.1748 23.1001 39.0498 27.2251 36.1623 28.8751C39.0498 30.2501 43.7248 33.8251 45.3748 40.1501H38.9123C37.5373 35.8876 34.0998 32.5876 29.5623 32.0376V40.1501H29.1498Z" fill="white"/>
</svg>
